<mxfile host="app.diagrams.net" agent="Mozilla/5.0 (X11; Linux x86_64) AppleWebKit/537.36 (KHTML, like Gecko) Chrome/138.0.0.0 Safari/537.36" version="27.1.6">
  <diagram id="C5RBs43oDa-KdzZeNtuy" name="Page-1">
    <mxGraphModel dx="1426" dy="791" grid="1" gridSize="10" guides="1" tooltips="1" connect="1" arrows="1" fold="1" page="1" pageScale="1" pageWidth="827" pageHeight="1169" math="0" shadow="0">
      <root>
        <mxCell id="WIyWlLk6GJQsqaUBKTNV-0" />
        <mxCell id="WIyWlLk6GJQsqaUBKTNV-1" parent="WIyWlLk6GJQsqaUBKTNV-0" />
        <mxCell id="dq5tgDAa4yFkEQTGaGyD-0" value="Architectural overview" style="shape=umlFrame;whiteSpace=wrap;html=1;pointerEvents=0;recursiveResize=0;container=1;collapsible=0;width=200;height=80;" vertex="1" parent="WIyWlLk6GJQsqaUBKTNV-1">
          <mxGeometry width="820" height="930" as="geometry" />
        </mxCell>
        <mxCell id="dq5tgDAa4yFkEQTGaGyD-1" value="Data Sources" style="swimlane;fontStyle=1;align=center;verticalAlign=top;childLayout=stackLayout;horizontal=1;startSize=30;horizontalStack=0;resizeParent=1;resizeParentMax=0;resizeLast=0;collapsible=0;marginBottom=0;html=1;whiteSpace=wrap;" vertex="1" parent="dq5tgDAa4yFkEQTGaGyD-0">
          <mxGeometry x="10" y="100" width="140" height="200" as="geometry" />
        </mxCell>
        <mxCell id="dq5tgDAa4yFkEQTGaGyD-2" value="Raw data from Users or raw documents" style="html=1;strokeColor=none;fillColor=none;align=center;verticalAlign=middle;spacingLeft=4;spacingRight=4;rotatable=0;points=[[0,0.5],[1,0.5]];resizeWidth=1;whiteSpace=wrap;" vertex="1" parent="dq5tgDAa4yFkEQTGaGyD-1">
          <mxGeometry y="30" width="140" height="30" as="geometry" />
        </mxCell>
        <mxCell id="dq5tgDAa4yFkEQTGaGyD-3" value="" style="swimlane;fontStyle=1;align=center;verticalAlign=top;horizontal=1;startSize=0;collapsible=0;marginBottom=0;html=1;strokeColor=none;fillColor=none;" vertex="1" parent="dq5tgDAa4yFkEQTGaGyD-1">
          <mxGeometry y="60" width="140" height="140" as="geometry" />
        </mxCell>
        <mxCell id="dq5tgDAa4yFkEQTGaGyD-4" value="DBs" style="html=1;align=center;verticalAlign=middle;rotatable=0;whiteSpace=wrap;" vertex="1" parent="dq5tgDAa4yFkEQTGaGyD-3">
          <mxGeometry width="100" height="30" relative="1" as="geometry">
            <mxPoint x="20" y="20" as="offset" />
          </mxGeometry>
        </mxCell>
        <mxCell id="dq5tgDAa4yFkEQTGaGyD-5" value="External APIs" style="html=1;align=center;verticalAlign=middle;rotatable=0;whiteSpace=wrap;" vertex="1" parent="dq5tgDAa4yFkEQTGaGyD-3">
          <mxGeometry width="100" height="30" relative="1" as="geometry">
            <mxPoint x="20" y="90" as="offset" />
          </mxGeometry>
        </mxCell>
        <mxCell id="dq5tgDAa4yFkEQTGaGyD-6" value="http/https" style="edgeStyle=none;endArrow=none;verticalAlign=middle;labelBackgroundColor=none;endSize=12;html=1;align=left;endFill=0;exitX=0.15;exitY=1;entryX=0.15;entryY=0;spacingLeft=4;rounded=0;" edge="1" parent="dq5tgDAa4yFkEQTGaGyD-3" source="dq5tgDAa4yFkEQTGaGyD-4" target="dq5tgDAa4yFkEQTGaGyD-5">
          <mxGeometry relative="1" as="geometry">
            <mxPoint as="offset" />
          </mxGeometry>
        </mxCell>
        <mxCell id="dq5tgDAa4yFkEQTGaGyD-22" value="Data ingestion" style="swimlane;fontStyle=1;align=center;verticalAlign=top;childLayout=stackLayout;horizontal=1;startSize=30;horizontalStack=0;resizeParent=1;resizeParentMax=0;resizeLast=0;collapsible=0;marginBottom=0;html=1;whiteSpace=wrap;" vertex="1" parent="dq5tgDAa4yFkEQTGaGyD-0">
          <mxGeometry x="230" y="100" width="160" height="200" as="geometry" />
        </mxCell>
        <mxCell id="dq5tgDAa4yFkEQTGaGyD-24" value="" style="swimlane;fontStyle=1;align=center;verticalAlign=top;horizontal=1;startSize=0;collapsible=0;marginBottom=0;html=1;strokeColor=none;fillColor=none;" vertex="1" parent="dq5tgDAa4yFkEQTGaGyD-22">
          <mxGeometry y="30" width="160" height="170" as="geometry" />
        </mxCell>
        <mxCell id="dq5tgDAa4yFkEQTGaGyD-25" value="&lt;p style=&quot;white-space-collapse: preserve;&quot; dir=&quot;auto&quot;&gt;Kafka&lt;/p&gt;" style="html=1;align=center;verticalAlign=middle;rotatable=0;whiteSpace=wrap;" vertex="1" parent="dq5tgDAa4yFkEQTGaGyD-24">
          <mxGeometry width="100" height="30" relative="1" as="geometry">
            <mxPoint x="20" y="20" as="offset" />
          </mxGeometry>
        </mxCell>
        <mxCell id="dq5tgDAa4yFkEQTGaGyD-26" value="&lt;p style=&quot;white-space-collapse: preserve;&quot; dir=&quot;auto&quot;&gt;HDFS&lt;/p&gt;" style="html=1;align=center;verticalAlign=middle;rotatable=0;whiteSpace=wrap;" vertex="1" parent="dq5tgDAa4yFkEQTGaGyD-24">
          <mxGeometry width="100" height="30" relative="1" as="geometry">
            <mxPoint x="20" y="90" as="offset" />
          </mxGeometry>
        </mxCell>
        <mxCell id="dq5tgDAa4yFkEQTGaGyD-27" value="Topic/par&lt;span style=&quot;background-color: transparent; color: light-dark(rgb(0, 0, 0), rgb(255, 255, 255));&quot;&gt;quet&lt;/span&gt;" style="edgeStyle=none;endArrow=none;verticalAlign=middle;labelBackgroundColor=none;endSize=12;html=1;align=left;endFill=0;exitX=0.15;exitY=1;entryX=0.15;entryY=0;spacingLeft=4;rounded=0;" edge="1" parent="dq5tgDAa4yFkEQTGaGyD-24" source="dq5tgDAa4yFkEQTGaGyD-25" target="dq5tgDAa4yFkEQTGaGyD-26">
          <mxGeometry relative="1" as="geometry" />
        </mxCell>
        <mxCell id="dq5tgDAa4yFkEQTGaGyD-35" value="Data Preprocessing" style="swimlane;fontStyle=1;align=center;verticalAlign=top;childLayout=stackLayout;horizontal=1;startSize=30;horizontalStack=0;resizeParent=1;resizeParentMax=0;resizeLast=0;collapsible=0;marginBottom=0;html=1;whiteSpace=wrap;" vertex="1" parent="dq5tgDAa4yFkEQTGaGyD-0">
          <mxGeometry x="440" y="100" width="140" height="190" as="geometry" />
        </mxCell>
        <mxCell id="dq5tgDAa4yFkEQTGaGyD-36" value="internal structure" style="html=1;strokeColor=none;fillColor=none;align=center;verticalAlign=middle;spacingLeft=4;spacingRight=4;rotatable=0;points=[[0,0.5],[1,0.5]];resizeWidth=1;whiteSpace=wrap;" vertex="1" parent="dq5tgDAa4yFkEQTGaGyD-35">
          <mxGeometry y="30" width="140" height="30" as="geometry" />
        </mxCell>
        <mxCell id="dq5tgDAa4yFkEQTGaGyD-37" value="" style="swimlane;fontStyle=1;align=center;verticalAlign=top;horizontal=1;startSize=0;collapsible=0;marginBottom=0;html=1;strokeColor=none;fillColor=none;" vertex="1" parent="dq5tgDAa4yFkEQTGaGyD-35">
          <mxGeometry y="60" width="140" height="130" as="geometry" />
        </mxCell>
        <mxCell id="dq5tgDAa4yFkEQTGaGyD-38" value="&lt;p style=&quot;white-space-collapse: preserve;&quot; dir=&quot;auto&quot;&gt;Airflow&lt;/p&gt;" style="html=1;align=center;verticalAlign=middle;rotatable=0;whiteSpace=wrap;" vertex="1" parent="dq5tgDAa4yFkEQTGaGyD-37">
          <mxGeometry width="100" height="30" relative="1" as="geometry">
            <mxPoint x="20" y="20" as="offset" />
          </mxGeometry>
        </mxCell>
        <mxCell id="dq5tgDAa4yFkEQTGaGyD-43" value="" style="endArrow=open;startArrow=none;endFill=0;startFill=0;endSize=8;html=1;verticalAlign=bottom;labelBackgroundColor=none;strokeWidth=1;rounded=0;" edge="1" parent="dq5tgDAa4yFkEQTGaGyD-0">
          <mxGeometry width="160" relative="1" as="geometry">
            <mxPoint x="150" y="220" as="sourcePoint" />
            <mxPoint x="230" y="220" as="targetPoint" />
          </mxGeometry>
        </mxCell>
        <mxCell id="dq5tgDAa4yFkEQTGaGyD-44" value="" style="endArrow=open;startArrow=none;endFill=0;startFill=0;endSize=8;html=1;verticalAlign=bottom;labelBackgroundColor=none;strokeWidth=1;rounded=0;" edge="1" parent="dq5tgDAa4yFkEQTGaGyD-0">
          <mxGeometry width="160" relative="1" as="geometry">
            <mxPoint x="390" y="220" as="sourcePoint" />
            <mxPoint x="440" y="220" as="targetPoint" />
          </mxGeometry>
        </mxCell>
        <mxCell id="dq5tgDAa4yFkEQTGaGyD-46" value="Feature store" style="swimlane;fontStyle=1;align=center;verticalAlign=top;childLayout=stackLayout;horizontal=1;startSize=30;horizontalStack=0;resizeParent=1;resizeParentMax=0;resizeLast=0;collapsible=0;marginBottom=0;html=1;whiteSpace=wrap;" vertex="1" parent="dq5tgDAa4yFkEQTGaGyD-0">
          <mxGeometry x="660" y="100" width="140" height="190" as="geometry" />
        </mxCell>
        <mxCell id="dq5tgDAa4yFkEQTGaGyD-47" value="Feast: entity and feature store" style="html=1;strokeColor=none;fillColor=none;align=center;verticalAlign=middle;spacingLeft=4;spacingRight=4;rotatable=0;points=[[0,0.5],[1,0.5]];resizeWidth=1;whiteSpace=wrap;" vertex="1" parent="dq5tgDAa4yFkEQTGaGyD-46">
          <mxGeometry y="30" width="140" height="30" as="geometry" />
        </mxCell>
        <mxCell id="dq5tgDAa4yFkEQTGaGyD-48" value="" style="swimlane;fontStyle=1;align=center;verticalAlign=top;horizontal=1;startSize=0;collapsible=0;marginBottom=0;html=1;strokeColor=none;fillColor=none;" vertex="1" parent="dq5tgDAa4yFkEQTGaGyD-46">
          <mxGeometry y="60" width="140" height="130" as="geometry" />
        </mxCell>
        <mxCell id="dq5tgDAa4yFkEQTGaGyD-49" value="ex. Driver" style="html=1;align=center;verticalAlign=middle;rotatable=0;whiteSpace=wrap;" vertex="1" parent="dq5tgDAa4yFkEQTGaGyD-48">
          <mxGeometry width="100" height="30" relative="1" as="geometry">
            <mxPoint x="20" as="offset" />
          </mxGeometry>
        </mxCell>
        <mxCell id="dq5tgDAa4yFkEQTGaGyD-50" value="ex.&amp;nbsp;&lt;span style=&quot;white-space-collapse: preserve; background-color: transparent; color: light-dark(rgb(0, 0, 0), rgb(255, 255, 255));&quot;&gt;avg_trips_per_day&lt;/span&gt;" style="html=1;align=center;verticalAlign=middle;rotatable=0;whiteSpace=wrap;" vertex="1" parent="dq5tgDAa4yFkEQTGaGyD-48">
          <mxGeometry width="110" height="30" relative="1" as="geometry">
            <mxPoint x="20" y="70" as="offset" />
          </mxGeometry>
        </mxCell>
        <mxCell id="dq5tgDAa4yFkEQTGaGyD-51" value="" style="edgeStyle=none;endArrow=none;verticalAlign=middle;labelBackgroundColor=none;endSize=12;html=1;align=left;endFill=0;exitX=0;exitY=1;spacingLeft=4;rounded=0;exitDx=0;exitDy=0;" edge="1" parent="dq5tgDAa4yFkEQTGaGyD-48" source="dq5tgDAa4yFkEQTGaGyD-49">
          <mxGeometry x="0.9537" y="-9" relative="1" as="geometry">
            <mxPoint x="20" y="69" as="targetPoint" />
            <mxPoint as="offset" />
          </mxGeometry>
        </mxCell>
        <mxCell id="dq5tgDAa4yFkEQTGaGyD-53" value="&lt;div&gt;&lt;br&gt;&lt;/div&gt;&lt;div&gt;&lt;br&gt;&lt;/div&gt;" style="endArrow=open;html=1;endSize=12;startArrow=open;startSize=14;startFill=0;edgeStyle=orthogonalEdgeStyle;align=center;verticalAlign=bottom;endFill=0;rounded=0;" edge="1" parent="dq5tgDAa4yFkEQTGaGyD-0">
          <mxGeometry y="3" relative="1" as="geometry">
            <mxPoint x="580" y="200" as="sourcePoint" />
            <mxPoint x="660" y="200" as="targetPoint" />
          </mxGeometry>
        </mxCell>
        <mxCell id="dq5tgDAa4yFkEQTGaGyD-60" value="" style="endArrow=open;startArrow=none;endFill=0;startFill=0;endSize=8;html=1;verticalAlign=bottom;labelBackgroundColor=none;strokeWidth=1;rounded=0;exitX=0.5;exitY=1;exitDx=0;exitDy=0;entryX=0.5;entryY=0;entryDx=0;entryDy=0;" edge="1" parent="dq5tgDAa4yFkEQTGaGyD-0" source="dq5tgDAa4yFkEQTGaGyD-37" target="dq5tgDAa4yFkEQTGaGyD-54">
          <mxGeometry width="160" relative="1" as="geometry">
            <mxPoint x="250" y="400" as="sourcePoint" />
            <mxPoint x="310" y="400.5" as="targetPoint" />
          </mxGeometry>
        </mxCell>
        <mxCell id="dq5tgDAa4yFkEQTGaGyD-72" value="Monitoring" style="shape=umlFrame;whiteSpace=wrap;html=1;pointerEvents=0;recursiveResize=0;container=1;collapsible=0;width=160;" vertex="1" parent="dq5tgDAa4yFkEQTGaGyD-0">
          <mxGeometry x="50" y="340" width="760" height="320" as="geometry" />
        </mxCell>
        <mxCell id="dq5tgDAa4yFkEQTGaGyD-54" value="&lt;p style=&quot;white-space-collapse: preserve;&quot; dir=&quot;auto&quot;&gt;Model Development&lt;/p&gt;" style="swimlane;fontStyle=1;align=center;verticalAlign=top;childLayout=stackLayout;horizontal=1;startSize=30;horizontalStack=0;resizeParent=1;resizeParentMax=0;resizeLast=0;collapsible=0;marginBottom=0;html=1;whiteSpace=wrap;" vertex="1" parent="dq5tgDAa4yFkEQTGaGyD-72">
          <mxGeometry x="364" y="60" width="140" height="200" as="geometry" />
        </mxCell>
        <mxCell id="dq5tgDAa4yFkEQTGaGyD-55" value="Models instructions and place to save the code&amp;nbsp;" style="html=1;strokeColor=none;fillColor=none;align=center;verticalAlign=middle;spacingLeft=4;spacingRight=4;rotatable=0;points=[[0,0.5],[1,0.5]];resizeWidth=1;whiteSpace=wrap;" vertex="1" parent="dq5tgDAa4yFkEQTGaGyD-54">
          <mxGeometry y="30" width="140" height="30" as="geometry" />
        </mxCell>
        <mxCell id="dq5tgDAa4yFkEQTGaGyD-56" value="" style="swimlane;fontStyle=1;align=center;verticalAlign=top;horizontal=1;startSize=0;collapsible=0;marginBottom=0;html=1;strokeColor=none;fillColor=none;" vertex="1" parent="dq5tgDAa4yFkEQTGaGyD-54">
          <mxGeometry y="60" width="140" height="140" as="geometry" />
        </mxCell>
        <mxCell id="dq5tgDAa4yFkEQTGaGyD-57" value="&lt;p style=&quot;white-space-collapse: preserve;&quot; dir=&quot;auto&quot;&gt;Jupyter&lt;/p&gt;" style="html=1;align=center;verticalAlign=middle;rotatable=0;whiteSpace=wrap;" vertex="1" parent="dq5tgDAa4yFkEQTGaGyD-56">
          <mxGeometry width="100" height="30" relative="1" as="geometry">
            <mxPoint x="20" y="20" as="offset" />
          </mxGeometry>
        </mxCell>
        <mxCell id="dq5tgDAa4yFkEQTGaGyD-58" value="MLflow" style="html=1;align=center;verticalAlign=middle;rotatable=0;whiteSpace=wrap;" vertex="1" parent="dq5tgDAa4yFkEQTGaGyD-56">
          <mxGeometry width="100" height="30" relative="1" as="geometry">
            <mxPoint x="20" y="90" as="offset" />
          </mxGeometry>
        </mxCell>
        <mxCell id="dq5tgDAa4yFkEQTGaGyD-59" value="" style="edgeStyle=none;endArrow=none;verticalAlign=middle;labelBackgroundColor=none;endSize=12;html=1;align=left;endFill=0;exitX=0.15;exitY=1;entryX=0.15;entryY=0;spacingLeft=4;rounded=0;" edge="1" parent="dq5tgDAa4yFkEQTGaGyD-56" source="dq5tgDAa4yFkEQTGaGyD-57" target="dq5tgDAa4yFkEQTGaGyD-58">
          <mxGeometry relative="1" as="geometry" />
        </mxCell>
        <mxCell id="dq5tgDAa4yFkEQTGaGyD-61" value="K8s training pipeline" style="fontStyle=1;whiteSpace=wrap;html=1;" vertex="1" parent="dq5tgDAa4yFkEQTGaGyD-72">
          <mxGeometry x="580" y="60" width="140" height="30" as="geometry" />
        </mxCell>
        <mxCell id="dq5tgDAa4yFkEQTGaGyD-69" style="edgeStyle=orthogonalEdgeStyle;rounded=0;orthogonalLoop=1;jettySize=auto;html=1;" edge="1" parent="dq5tgDAa4yFkEQTGaGyD-72" source="dq5tgDAa4yFkEQTGaGyD-55" target="dq5tgDAa4yFkEQTGaGyD-61">
          <mxGeometry relative="1" as="geometry" />
        </mxCell>
        <mxCell id="dq5tgDAa4yFkEQTGaGyD-63" value=" Seldon Core" style="fontStyle=1;whiteSpace=wrap;html=1;" vertex="1" parent="dq5tgDAa4yFkEQTGaGyD-72">
          <mxGeometry x="580" y="215" width="150" height="30" as="geometry" />
        </mxCell>
        <mxCell id="dq5tgDAa4yFkEQTGaGyD-70" style="edgeStyle=orthogonalEdgeStyle;rounded=0;orthogonalLoop=1;jettySize=auto;html=1;entryX=1.036;entryY=0.643;entryDx=0;entryDy=0;entryPerimeter=0;" edge="1" parent="dq5tgDAa4yFkEQTGaGyD-72" source="dq5tgDAa4yFkEQTGaGyD-63" target="dq5tgDAa4yFkEQTGaGyD-56">
          <mxGeometry relative="1" as="geometry" />
        </mxCell>
        <mxCell id="dq5tgDAa4yFkEQTGaGyD-71" style="edgeStyle=orthogonalEdgeStyle;rounded=0;orthogonalLoop=1;jettySize=auto;html=1;entryX=0.46;entryY=-0.067;entryDx=0;entryDy=0;entryPerimeter=0;" edge="1" parent="dq5tgDAa4yFkEQTGaGyD-72" source="dq5tgDAa4yFkEQTGaGyD-61" target="dq5tgDAa4yFkEQTGaGyD-63">
          <mxGeometry relative="1" as="geometry" />
        </mxCell>
        <mxCell id="dq5tgDAa4yFkEQTGaGyD-80" value="" style="shape=flexArrow;endArrow=classic;startArrow=classic;html=1;rounded=0;exitX=1;exitY=0.25;exitDx=0;exitDy=0;" edge="1" parent="dq5tgDAa4yFkEQTGaGyD-72" source="dq5tgDAa4yFkEQTGaGyD-75">
          <mxGeometry width="100" height="100" relative="1" as="geometry">
            <mxPoint x="264" y="230" as="sourcePoint" />
            <mxPoint x="364" y="130" as="targetPoint" />
          </mxGeometry>
        </mxCell>
        <mxCell id="dq5tgDAa4yFkEQTGaGyD-73" value="Monitoring" style="swimlane;fontStyle=1;align=center;verticalAlign=top;childLayout=stackLayout;horizontal=1;startSize=30;horizontalStack=0;resizeParent=1;resizeParentMax=0;resizeLast=0;collapsible=0;marginBottom=0;html=1;whiteSpace=wrap;" vertex="1" parent="WIyWlLk6GJQsqaUBKTNV-1">
          <mxGeometry x="80" y="410" width="140" height="170" as="geometry" />
        </mxCell>
        <mxCell id="dq5tgDAa4yFkEQTGaGyD-75" value="" style="swimlane;fontStyle=1;align=center;verticalAlign=top;horizontal=1;startSize=0;collapsible=0;marginBottom=0;html=1;strokeColor=none;fillColor=none;" vertex="1" parent="dq5tgDAa4yFkEQTGaGyD-73">
          <mxGeometry y="30" width="140" height="140" as="geometry" />
        </mxCell>
        <mxCell id="dq5tgDAa4yFkEQTGaGyD-76" value="&lt;p style=&quot;white-space-collapse: preserve;&quot; dir=&quot;auto&quot;&gt;Prometheus&lt;/p&gt;" style="html=1;align=center;verticalAlign=middle;rotatable=0;whiteSpace=wrap;" vertex="1" parent="dq5tgDAa4yFkEQTGaGyD-75">
          <mxGeometry width="100" height="30" relative="1" as="geometry">
            <mxPoint x="20" y="20" as="offset" />
          </mxGeometry>
        </mxCell>
        <mxCell id="dq5tgDAa4yFkEQTGaGyD-77" value="&lt;p style=&quot;white-space-collapse: preserve;&quot; dir=&quot;auto&quot;&gt;Grafana&lt;/p&gt;" style="html=1;align=center;verticalAlign=middle;rotatable=0;whiteSpace=wrap;" vertex="1" parent="dq5tgDAa4yFkEQTGaGyD-75">
          <mxGeometry width="100" height="30" relative="1" as="geometry">
            <mxPoint x="20" y="90" as="offset" />
          </mxGeometry>
        </mxCell>
        <mxCell id="dq5tgDAa4yFkEQTGaGyD-78" value="" style="edgeStyle=none;endArrow=none;verticalAlign=middle;labelBackgroundColor=none;endSize=12;html=1;align=left;endFill=0;exitX=0.15;exitY=1;entryX=0.15;entryY=0;spacingLeft=4;rounded=0;" edge="1" parent="dq5tgDAa4yFkEQTGaGyD-75" source="dq5tgDAa4yFkEQTGaGyD-76" target="dq5tgDAa4yFkEQTGaGyD-77">
          <mxGeometry relative="1" as="geometry" />
        </mxCell>
        <mxCell id="dq5tgDAa4yFkEQTGaGyD-81" value="" style="endArrow=classic;html=1;rounded=0;exitX=1;exitY=0;exitDx=0;exitDy=0;" edge="1" parent="WIyWlLk6GJQsqaUBKTNV-1" source="dq5tgDAa4yFkEQTGaGyD-73">
          <mxGeometry width="50" height="50" relative="1" as="geometry">
            <mxPoint x="390" y="310" as="sourcePoint" />
            <mxPoint x="440" y="260" as="targetPoint" />
          </mxGeometry>
        </mxCell>
      </root>
    </mxGraphModel>
  </diagram>
</mxfile>
